<svg id="visual" viewBox="0 0 900 600" width="900" height="600" xmlns="http://www.w3.org/2000/svg" xmlns:xlink="http://www.w3.org/1999/xlink" version="1.1"><path d="M0 145L16.7 131C33.3 117 66.7 89 100 120C133.3 151 166.7 241 200 265C233.3 289 266.7 247 300 238C333.3 229 366.7 253 400 263C433.3 273 466.7 269 500 249C533.3 229 566.7 193 600 174C633.3 155 666.7 153 700 150C733.3 147 766.7 143 800 127C833.3 111 866.7 83 883.3 69L900 55L900 0L883.3 0C866.7 0 833.3 0 800 0C766.7 0 733.3 0 700 0C666.7 0 633.3 0 600 0C566.7 0 533.3 0 500 0C466.7 0 433.3 0 400 0C366.7 0 333.3 0 300 0C266.7 0 233.3 0 200 0C166.7 0 133.3 0 100 0C66.7 0 33.3 0 16.7 0L0 0Z" fill="#b6cfff"></path><path d="M0 169L16.7 168C33.3 167 66.7 165 100 198C133.3 231 166.7 299 200 333C233.3 367 266.7 367 300 376C333.3 385 366.7 403 400 403C433.3 403 466.7 385 500 363C533.3 341 566.7 315 600 285C633.3 255 666.7 221 700 202C733.3 183 766.7 179 800 164C833.3 149 866.7 123 883.3 110L900 97L900 53L883.3 67C866.7 81 833.3 109 800 125C766.7 141 733.3 145 700 148C666.7 151 633.3 153 600 172C566.7 191 533.3 227 500 247C466.7 267 433.3 271 400 261C366.7 251 333.3 227 300 236C266.7 245 233.3 287 200 263C166.7 239 133.3 149 100 118C66.7 87 33.3 115 16.7 129L0 143Z" fill="#a6c3fb"></path><path d="M0 211L16.7 208C33.3 205 66.7 199 100 231C133.3 263 166.7 333 200 367C233.3 401 266.7 399 300 405C333.3 411 366.7 425 400 423C433.3 421 466.7 403 500 392C533.3 381 566.7 377 600 349C633.3 321 666.7 269 700 246C733.3 223 766.7 229 800 224C833.3 219 866.7 203 883.3 195L900 187L900 95L883.3 108C866.7 121 833.3 147 800 162C766.7 177 733.3 181 700 200C666.7 219 633.3 253 600 283C566.7 313 533.3 339 500 361C466.7 383 433.3 401 400 401C366.7 401 333.3 383 300 374C266.7 365 233.3 365 200 331C166.7 297 133.3 229 100 196C66.7 163 33.3 165 16.7 166L0 167Z" fill="#96b8f8"></path><path d="M0 331L16.7 328C33.3 325 66.7 319 100 340C133.3 361 166.7 409 200 437C233.3 465 266.7 473 300 480C333.3 487 366.7 493 400 486C433.3 479 466.7 459 500 460C533.3 461 566.7 483 600 466C633.3 449 666.7 393 700 363C733.3 333 766.7 329 800 318C833.3 307 866.7 289 883.3 280L900 271L900 185L883.3 193C866.7 201 833.3 217 800 222C766.7 227 733.3 221 700 244C666.7 267 633.3 319 600 347C566.7 375 533.3 379 500 390C466.7 401 433.3 419 400 421C366.7 423 333.3 409 300 403C266.7 397 233.3 399 200 365C166.7 331 133.3 261 100 229C66.7 197 33.3 203 16.7 206L0 209Z" fill="#86acf4"></path><path d="M0 547L16.7 546C33.3 545 66.7 543 100 548C133.3 553 166.7 565 200 565C233.3 565 266.7 553 300 551C333.3 549 366.7 557 400 554C433.3 551 466.7 537 500 540C533.3 543 566.7 563 600 569C633.3 575 666.7 567 700 561C733.3 555 766.7 551 800 543C833.3 535 866.7 523 883.3 517L900 511L900 269L883.3 278C866.7 287 833.3 305 800 316C766.7 327 733.3 331 700 361C666.7 391 633.3 447 600 464C566.7 481 533.3 459 500 458C466.7 457 433.3 477 400 484C366.7 491 333.3 485 300 478C266.7 471 233.3 463 200 435C166.7 407 133.3 359 100 338C66.7 317 33.3 323 16.7 326L0 329Z" fill="#75a1f1"></path><path d="M0 601L16.7 601C33.3 601 66.7 601 100 601C133.3 601 166.7 601 200 601C233.3 601 266.7 601 300 601C333.3 601 366.7 601 400 601C433.3 601 466.7 601 500 601C533.3 601 566.7 601 600 601C633.3 601 666.7 601 700 601C733.3 601 766.7 601 800 601C833.3 601 866.7 601 883.3 601L900 601L900 509L883.3 515C866.7 521 833.3 533 800 541C766.7 549 733.3 553 700 559C666.7 565 633.3 573 600 567C566.7 561 533.3 541 500 538C466.7 535 433.3 549 400 552C366.7 555 333.3 547 300 549C266.7 551 233.3 563 200 563C166.7 563 133.3 551 100 546C66.7 541 33.3 543 16.7 544L0 545Z" fill="#6495ed"></path></svg>