<svg class="border shadow-md" viewBox="0 0 1063.04 1063.04" style="width: 1063.04px; height: 1063.04px;" xmlns="http://www.w3.org/2000/svg" preserveAspectRatio="none"><rect class="bg" id="bg" x="0" y="0" width="1063.04" height="1063.04" fill="#ffffff"/><g transform="rotate(0 531.52 531.52)"><path id="-1" d="M -631.52 -76.30 S -325.76 -179.30&#xA;            0.00 -76.30 305.76 -129.46&#xA;            631.52 -76.30 863.04 -129.46&#xA;            1263.04 -76.30 1265.56 -129.46&#xA;            1894.56 -76.30 h 110 V 1263.04 H -631.52 Z" fill="#FFFFFF"/><path id="0" d="M -631.52 30.00 S -446.00 -23.15&#xA;            0.00 30.00 305.76 -67.00&#xA;            631.52 30.00 937.28 -23.15&#xA;            1263.04 30.00 1568.80 -74.00&#xA;            1894.56 30.00 h 110 V 1263.04 H -631.52 Z" fill="#fcfdff"/><path id="1" d="M -631.52 136.30 S -325.76 68.30&#xA;            0.00 136.30 305.76 80.30&#xA;            631.52 136.30 937.28 83.15&#xA;            1263.04 136.30 1568.80 41.30&#xA;            1894.56 136.30 h 110 V 1263.04 H -631.52 Z" fill="#f9fbff"/><path id="2" d="M -631.52 242.61 S -637.00 157.61&#xA;            0.00 242.61 98.52 189.46&#xA;            631.52 242.61 871.04 162.61&#xA;            1263.04 242.61 1568.80 155.61&#xA;            1894.56 242.61 h 110 V 1263.04 H -631.52 Z" fill="#f6f9ff"/><path id="3" d="M -631.52 348.91 S -325.76 295.76&#xA;            0.00 348.91 305.76 295.76&#xA;            631.52 348.91 937.28 291.91&#xA;            1263.04 348.91 1568.80 252.91&#xA;            1894.56 348.91 h 110 V 1263.04 H -631.52 Z" fill="#f3f7ff"/><path id="4" d="M -631.52 455.22 S -389.00 402.06&#xA;            0.00 455.22 305.76 380.22&#xA;            631.52 455.22 937.28 402.06&#xA;            1263.04 455.22 1568.80 369.22&#xA;            1894.56 455.22 h 110 V 1263.04 H -631.52 Z" fill="#f0f5ff"/><path id="5" d="M -631.52 561.52 S -325.76 508.37&#xA;            0.00 561.52 305.76 508.37&#xA;            631.52 561.52 937.04 498.52&#xA;            1263.04 561.52 1527.56 508.37&#xA;            1894.56 561.52 h 110 V 1263.04 H -631.52 Z" fill="#edf3ff"/><path id="6" d="M -631.52 667.82 S -325.76 614.67&#xA;            0.00 667.82 305.76 571.82&#xA;            631.52 667.82 892.04 614.67&#xA;            1263.04 667.82 1568.80 588.82&#xA;            1894.56 667.82 h 110 V 1263.04 H -631.52 Z" fill="#eaf1ff"/><path id="7" d="M -631.52 774.13 S -325.76 679.13&#xA;            0.00 774.13 305.76 669.13&#xA;            631.52 774.13 937.28 705.13&#xA;            1263.04 774.13 1462.56 720.98&#xA;            1894.56 774.13 h 110 V 1263.04 H -631.52 Z" fill="#e7efff"/><path id="8" d="M -631.52 880.43 S -400.00 827.28&#xA;            0.00 880.43 280.52 827.28&#xA;            631.52 880.43 937.28 827.28&#xA;            1263.04 880.43 1491.56 827.28&#xA;            1894.56 880.43 h 110 V 1263.04 H -631.52 Z" fill="#e4edff"/><path id="9" d="M -631.52 986.74 S -325.76 933.58&#xA;            0.00 986.74 305.76 933.58&#xA;            631.52 986.74 937.28 933.58&#xA;            1263.04 986.74 1568.80 933.58&#xA;            1894.56 986.74 h 110 V 1263.04 H -631.52 Z" fill="#e1ebff"/></g></svg>