<svg width="74" height="28" viewBox="0 0 74 28" fill="none" xmlns="http://www.w3.org/2000/svg">
    <path d="M6.32 -1.90735e-06V8.88C6.32 10.48 6.62667 11.68 7.24 12.48C7.88 13.2533 8.92 13.64 10.36 13.64C11.3733 13.64 12.32 13.5333 13.2 13.32C14.1067 13.08 14.8267 12.7333 15.36 12.28V-1.90735e-06H20.84V28H15.36V16.72C14.6667 17.12 13.7333 17.4933 12.56 17.84C11.4133 18.16 10.04 18.32 8.44 18.32C7.32 18.32 6.29333 18.1867 5.36 17.92C4.45333 17.6267 3.65333 17.1733 2.96 16.56C2.29333 15.92 1.77333 15.12 1.4 14.16C1.02667 13.1733 0.84 11.9867 0.84 10.6V-1.90735e-06H6.32ZM45.9378 4.88H35.1378V28H29.6578V-1.90735e-06H45.9378V4.88ZM58.8981 16.04H57.4581V28H51.9781V-1.90735e-06H57.4581V12.4L58.7381 11.84L66.4581 -1.90735e-06H72.6981L64.5381 11.76L62.3781 13.28L64.6181 14.84L73.9381 28H67.1781L58.8981 16.04Z" fill="#6495ED"/>
</svg>
